<?xml version="1.0" encoding="UTF-8"?>
<svg xmlns="http://www.w3.org/2000/svg" width="356" height="337" viewBox="0 0 356 337" fill="none">
  <g clip-path="url(#clip0_2033_18705)">
    <path d="M0.925781 170.068C3.79877 168.406 8.75852 171.25 11.6315 169.618C14.5045 167.987 9.53881 165.09 12.4118 163.435C15.2848 161.78 20.2446 164.617 23.1176 162.986C25.9906 161.354 21.0249 158.463 23.8979 156.802C26.7709 155.141 31.7306 158.014 34.6036 156.353C37.4766 154.692 32.511 151.831 35.384 150.17C38.257 148.508 43.2167 151.352 46.0897 149.72" stroke="white" stroke-width="1.77345" stroke-linecap="round" stroke-linejoin="round"></path>
    <path d="M343.499 144.577V231.4L277.119 193.075V90.6349L329.974 121.15L330.985 135.19L343.499 144.577Z" fill="white"></path>
    <path d="M329.972 121.15L343.497 144.577L330.983 135.19L329.972 121.15Z" fill="white"></path>
    <path d="M343.497 144.577L330.983 135.19L329.972 121.15" stroke="#1C1C1C" stroke-width="1.77345" stroke-linecap="round" stroke-linejoin="round"></path>
    <path d="M329.974 121.15L277.119 90.6349V193.075L343.499 231.4V144.577L329.974 121.15Z" stroke="#1C1C1C" stroke-width="1.77345" stroke-linecap="round" stroke-linejoin="round"></path>
    <path d="M322.096 133.665C324.94 135.308 327.245 139.298 327.245 142.579C327.245 145.86 324.94 147.19 322.096 145.535C320.521 144.544 319.233 143.158 318.36 141.515L322.096 139.588L319.318 132.985C320.295 132.885 321.276 133.125 322.096 133.665Z" fill="white"></path>
    <path d="M319.319 133.008L322.097 139.611L318.361 141.539C317.493 140.049 317.01 138.367 316.954 136.644C316.954 134.539 317.894 133.233 319.319 133.008Z" fill="#1C1C1C"></path>
    <path d="M306.682 124.762C309.526 126.405 311.831 130.395 311.831 133.676C311.831 135.556 311.074 136.791 309.904 137.223L306.682 130.72L302.444 131.637C301.877 130.416 301.569 129.092 301.539 127.747C301.539 124.454 303.845 123.124 306.682 124.762Z" fill="white"></path>
    <path d="M306.68 130.709L309.902 137.211C309.357 137.357 308.787 137.383 308.231 137.288C307.675 137.193 307.146 136.98 306.68 136.662C304.792 135.453 303.314 133.701 302.441 131.637L306.68 130.709Z" fill="#1C1C1C"></path>
    <path d="M295.241 120.334C295.969 121.704 296.373 123.223 296.424 124.774C296.424 128.06 294.118 129.39 291.275 127.729C288.431 126.068 286.132 122.102 286.132 118.815C286.132 115.971 287.858 114.594 290.169 115.345L291.275 121.788L295.241 120.334Z" fill="white"></path>
    <path d="M295.242 120.334L291.264 121.806L290.158 115.363C290.544 115.488 290.915 115.657 291.264 115.865C292.983 116.951 294.362 118.5 295.242 120.334Z" fill="#1C1C1C"></path>
    <path d="M330.295 159.74V163.393L292.06 141.314V137.661L330.295 159.74Z" fill="white"></path>
    <path d="M330.295 163.393L292.06 141.314V137.661L330.295 159.74V163.393Z" stroke="#1C1C1C" stroke-width="1.77345" stroke-linecap="round" stroke-linejoin="round"></path>
    <path d="M323.887 167.437V171.09L292.06 152.711V149.064L323.887 167.437Z" fill="white"></path>
    <path d="M323.887 171.09L292.06 152.711V149.064L323.887 167.437V171.09Z" stroke="#1C1C1C" stroke-width="1.77345" stroke-linecap="round" stroke-linejoin="round"></path>
    <path d="M319.43 175.695V179.349L292.06 163.547V159.894L319.43 175.695Z" fill="white"></path>
    <path d="M319.43 179.349L292.06 163.547V159.894L319.43 175.695V179.349Z" stroke="#1C1C1C" stroke-width="1.77345" stroke-linecap="round" stroke-linejoin="round"></path>
    <path d="M317.16 184.592V188.245L292.06 173.75V170.097L317.16 184.592Z" fill="white"></path>
    <path d="M317.16 188.245L292.06 173.75V170.097L317.16 184.592V188.245Z" stroke="#1C1C1C" stroke-width="1.77345" stroke-linecap="round" stroke-linejoin="round"></path>
    <path d="M313.879 193.187V196.841L292.06 184.249V180.596L313.879 193.187Z" fill="white"></path>
    <path d="M313.879 196.841L292.06 184.249V180.596L313.879 193.187V196.841Z" stroke="#1C1C1C" stroke-width="1.77345" stroke-linecap="round" stroke-linejoin="round"></path>
    <path d="M287.267 134.528V185.402" stroke="#1C1C1C" stroke-width="1.77345" stroke-linecap="round" stroke-linejoin="round"></path>
    <path d="M295.241 120.334C295.969 121.704 296.374 123.223 296.424 124.774C296.424 128.06 294.118 129.39 291.275 127.729C288.431 126.068 286.132 122.101 286.132 118.815C286.132 115.971 287.858 114.6 290.169 115.345C290.555 115.471 290.926 115.639 291.275 115.847C292.994 116.938 294.369 118.494 295.241 120.334Z" stroke="#1C1C1C" stroke-width="1.77345" stroke-linecap="round" stroke-linejoin="round"></path>
    <path d="M302.444 131.625C301.877 130.405 301.569 129.08 301.539 127.735C301.539 124.454 303.845 123.124 306.682 124.78C309.52 126.435 311.831 130.413 311.831 133.694C311.831 135.574 311.074 136.809 309.904 137.241C309.359 137.387 308.789 137.413 308.233 137.318C307.677 137.223 307.148 137.009 306.682 136.691C304.788 135.472 303.309 133.705 302.444 131.625Z" stroke="#1C1C1C" stroke-width="1.77345" stroke-linecap="round" stroke-linejoin="round"></path>
    <path d="M319.319 133.008C320.293 132.903 321.274 133.137 322.097 133.671C324.941 135.314 327.246 139.304 327.246 142.585C327.246 145.866 324.941 147.196 322.097 145.541C320.522 144.551 319.234 143.164 318.361 141.521C317.493 140.031 317.01 138.349 316.954 136.626C316.954 134.54 317.894 133.239 319.319 133.008Z" stroke="#1C1C1C" stroke-width="1.77345" stroke-linecap="round" stroke-linejoin="round"></path>
    <path d="M290.158 115.363L291.264 121.806L295.242 120.34" stroke="#1C1C1C" stroke-width="1.77345" stroke-linecap="round" stroke-linejoin="round"></path>
    <path d="M302.441 131.625L306.68 130.709L309.902 137.2" stroke="#1C1C1C" stroke-width="1.77345" stroke-linecap="round" stroke-linejoin="round"></path>
    <path d="M318.36 141.533L322.096 139.612L319.318 133.002" stroke="#1C1C1C" stroke-width="1.77345" stroke-linecap="round" stroke-linejoin="round"></path>
    <path d="M355.073 230.785L343.41 237.518L328.625 227.362L340.282 220.629L355.073 230.785Z" fill="#1C1C1C"></path>
    <path d="M344.172 237.081L347.169 254.307L335.512 261.046L332.272 242.436L343.41 237.518L344.172 237.081Z" fill="#1C1C1C"></path>
    <path d="M343.409 237.518L332.272 242.436L335.511 261.045L322.719 244.931L309.932 246.279L313.172 231.405L302.028 213.629L316.819 220.546L322.719 208.214L328.624 227.362L343.409 237.518Z" fill="#E5EBFF"></path>
    <path d="M334.383 201.481L340.283 220.629L328.625 227.362L322.72 208.215L334.383 201.481Z" fill="#1C1C1C"></path>
    <path d="M321.584 210.585L316.819 220.546L302.028 213.63L313.692 206.891L321.584 210.585Z" fill="#1C1C1C"></path>
    <path d="M302.028 213.629L313.172 231.405L309.932 246.279L322.719 244.931L335.511 261.045L332.272 242.436L343.409 237.518L328.624 227.362L322.719 208.214L316.819 220.546L302.028 213.629Z" stroke="#1C1C1C" stroke-width="1.77345" stroke-linecap="round" stroke-linejoin="round"></path>
    <path d="M322.72 208.215L334.383 201.481L340.283 220.629L355.073 230.785L343.41 237.518" stroke="#1C1C1C" stroke-width="1.77345" stroke-linecap="round" stroke-linejoin="round"></path>
    <path d="M344.172 237.081L347.169 254.307L335.512 261.046" stroke="#1C1C1C" stroke-width="1.77345" stroke-linecap="round" stroke-linejoin="round"></path>
    <path d="M321.584 210.585L313.692 206.891L302.028 213.63" stroke="#1C1C1C" stroke-width="1.77345" stroke-linecap="round" stroke-linejoin="round"></path>
    <path d="M340.282 220.629L328.625 227.362" stroke="#1C1C1C" stroke-width="1.77345" stroke-linecap="round" stroke-linejoin="round"></path>
    <path d="M28.4262 252.793C29.5731 252.793 30.6943 253.133 31.648 253.771C32.6017 254.408 33.345 255.314 33.7839 256.373C34.2228 257.433 34.3377 258.599 34.1139 259.724C33.8901 260.849 33.3378 261.882 32.5268 262.693C31.7157 263.504 30.6825 264.056 29.5575 264.28C28.4326 264.504 27.2666 264.389 26.2069 263.95C25.1472 263.511 24.2415 262.768 23.6043 261.814C22.9671 260.861 22.627 259.739 22.627 258.592C22.627 257.054 23.2379 255.579 24.3255 254.492C25.4131 253.404 26.8881 252.793 28.4262 252.793Z" fill="white"></path>
    <path d="M34.2439 258.592C34.2451 257.445 33.9058 256.323 33.269 255.368C32.6322 254.414 31.7266 253.67 30.6667 253.23C29.6068 252.79 28.4402 252.675 27.3148 252.899C26.1893 253.122 25.1555 253.675 24.3441 254.486C23.5327 255.297 22.9802 256.331 22.7566 257.457C22.5331 258.582 22.6484 259.749 23.0881 260.808C23.5277 261.868 24.272 262.774 25.2265 263.411C26.1811 264.048 27.3031 264.387 28.4506 264.386C29.9866 264.384 31.4592 263.773 32.5453 262.687C33.6315 261.601 34.2423 260.128 34.2439 258.592Z" stroke="#1C1C1C" stroke-width="1.77345" stroke-linecap="round" stroke-linejoin="round"></path>
    <path d="M343.416 65.3335C344.562 65.3347 345.681 65.6755 346.633 66.3127C347.585 66.95 348.327 67.8552 348.764 68.9139C349.202 69.9726 349.316 71.1372 349.092 72.2606C348.868 73.384 348.315 74.4157 347.505 75.2253C346.694 76.0349 345.662 76.5861 344.539 76.8091C343.415 77.0322 342.25 76.9171 341.192 76.4785C340.134 76.0398 339.229 75.2972 338.593 74.3446C337.957 73.3921 337.617 72.2724 337.617 71.1268C337.617 70.3655 337.767 69.6117 338.059 68.9084C338.35 68.2051 338.778 67.5662 339.316 67.0282C339.855 66.4901 340.494 66.0636 341.198 65.7728C341.901 65.482 342.655 65.3327 343.416 65.3335Z" fill="white"></path>
    <path d="M349.209 71.1268C349.21 69.9793 348.871 68.8573 348.234 67.9027C347.597 66.9482 346.691 66.2039 345.632 65.7643C344.572 65.3246 343.405 65.2092 342.28 65.4328C341.154 65.6564 340.12 66.2088 339.309 67.0202C338.498 67.8316 337.945 68.8655 337.721 69.991C337.498 71.1164 337.613 72.283 338.053 73.3429C338.493 74.4028 339.237 75.3084 340.191 75.9452C341.146 76.582 342.268 76.9213 343.415 76.9201C344.952 76.9201 346.426 76.3097 347.512 75.2233C348.598 74.1368 349.209 72.6633 349.209 71.1268Z" stroke="#1C1C1C" stroke-width="1.77345" stroke-linecap="round" stroke-linejoin="round"></path>
    <path d="M218.872 324.34C220.018 324.342 221.138 324.682 222.089 325.32C223.041 325.957 223.783 326.862 224.221 327.921C224.658 328.979 224.772 330.144 224.548 331.267C224.324 332.391 223.771 333.423 222.961 334.232C222.15 335.042 221.118 335.593 219.995 335.816C218.871 336.039 217.706 335.924 216.648 335.485C215.59 335.047 214.685 334.304 214.049 333.352C213.413 332.399 213.073 331.279 213.073 330.134C213.073 329.372 213.223 328.618 213.515 327.915C213.806 327.212 214.233 326.573 214.772 326.035C215.311 325.497 215.95 325.07 216.654 324.78C217.357 324.489 218.111 324.34 218.872 324.34Z" fill="white"></path>
    <path d="M224.666 330.133C224.667 328.986 224.328 327.864 223.691 326.909C223.054 325.955 222.149 325.211 221.089 324.771C220.029 324.331 218.862 324.216 217.737 324.44C216.611 324.663 215.577 325.215 214.766 326.027C213.955 326.838 213.402 327.872 213.179 328.998C212.955 330.123 213.07 331.29 213.51 332.349C213.95 333.409 214.694 334.315 215.648 334.952C216.603 335.589 217.725 335.928 218.873 335.927C219.633 335.927 220.387 335.777 221.089 335.486C221.792 335.195 222.431 334.768 222.969 334.23C223.507 333.692 223.934 333.053 224.225 332.35C224.516 331.647 224.666 330.894 224.666 330.133Z" stroke="#1C1C1C" stroke-width="1.77345" stroke-linecap="round" stroke-linejoin="round"></path>
    <path d="M202.207 139.588C207.652 149.546 210.498 160.716 210.483 172.066C210.483 172.551 210.483 173.029 210.436 173.514C210.07 163.209 206.71 153.233 200.765 144.808C201.458 143.134 201.942 141.38 202.207 139.588Z" fill="#E5EBFF"></path>
    <path d="M210.406 173.514C210.442 173.029 210.454 172.551 210.454 172.066C210.454 172.811 210.454 173.544 210.412 174.277C210.436 174.023 210.436 173.798 210.406 173.514Z" fill="white"></path>
    <path d="M210.406 173.514C210.406 173.774 210.406 174.023 210.406 174.277C210.045 197.237 197.53 217.295 179.465 228.999C186.086 223.218 190.07 213.038 190.106 200.033L190.584 199.761C203.259 192.526 209.814 183.044 210.406 173.514Z" fill="#E5EBFF"></path>
    <path d="M200.761 144.831C206.706 153.257 210.067 163.232 210.432 173.538C209.841 183.067 203.261 192.549 190.629 199.767L190.15 200.039C190.15 199.95 190.15 199.856 190.15 199.767C190.15 187.985 187.04 175.116 181.702 162.862C182.802 162.314 183.872 161.738 184.912 161.135C192.999 156.453 198.278 150.778 200.761 144.831Z" fill="#E5EBFF"></path>
    <path d="M202.208 139.588C201.941 141.381 201.455 143.134 200.759 144.808C188.824 127.564 167.158 116.06 143.223 115.906C155.099 109.191 165.527 108.192 173.773 111.804C185.802 118.034 195.701 127.707 202.208 139.588Z" fill="#E5EBFF"></path>
    <path d="M200.759 144.831C198.276 150.802 192.997 156.477 184.916 161.135C183.875 161.738 182.805 162.314 181.706 162.862C173.229 143.401 159.142 125.507 142.968 116.078C143.049 116.022 143.133 115.973 143.222 115.93C167.158 116.06 188.823 127.564 200.759 144.831Z" fill="#E5EBFF"></path>
    <path d="M190.154 199.743C190.154 199.832 190.154 199.927 190.154 200.015C176.977 207.476 159.834 211.206 142.69 211.206V171.214C156.606 171.214 170.528 168.424 181.706 162.838C187.044 175.092 190.154 187.985 190.154 199.743Z" fill="#E5EBFF"></path>
    <path d="M190.148 200.015C190.101 213.068 186.116 223.218 179.507 228.982C168.549 236.093 155.76 239.866 142.696 239.841V211.188C159.828 211.206 176.971 207.493 190.148 200.015Z" fill="#E5EBFF"></path>
    <path d="M142.968 116.054C159.142 125.483 173.229 143.377 181.706 162.838C170.522 168.424 156.6 171.214 142.69 171.214V116.237H142.726L142.968 116.054Z" fill="white"></path>
    <path d="M173.754 111.804C165.478 108.192 155.079 109.191 143.203 115.906H142.7H142.665V104.296C153.48 104.273 164.141 106.848 173.754 111.804Z" fill="white"></path>
    <path d="M143.223 115.906C143.135 115.949 143.05 115.998 142.969 116.054C142.889 115.999 142.806 115.947 142.721 115.901L143.223 115.906Z" fill="white"></path>
    <path d="M142.721 115.901C142.806 115.948 142.889 115.999 142.969 116.054L142.721 116.19H142.686V115.877L142.721 115.901Z" fill="white"></path>
    <path d="M142.684 239.853C128.397 239.873 114.474 235.347 102.93 226.93L103.001 226.836C96.7462 220.203 94.0564 210.49 94.2338 199.442L94.7422 199.737C108.031 207.292 125.334 211.2 142.684 211.2V239.853Z" fill="#E5EBFF"></path>
    <path d="M142.685 171.214V211.206C125.335 211.206 108.032 207.298 94.7428 199.743L94.2344 199.448C94.4176 187.985 97.6985 175.075 103.314 162.66C114.558 168.365 128.627 171.214 142.685 171.214Z" fill="white"></path>
    <path d="M142.685 116.214V171.191C128.628 171.191 114.558 168.342 103.314 162.637C111.892 143.702 125.92 125.915 142.685 116.214Z" fill="white"></path>
    <path d="M142.684 115.901V116.214C125.919 125.903 111.891 143.702 103.314 162.66C102.338 162.17 101.381 161.65 100.447 161.112C92.4307 156.489 87.1695 150.867 84.6689 144.944C96.8289 128.037 118.944 115.912 142.684 115.901Z" fill="white"></path>
    <path d="M142.685 104.278V115.865C131.985 109.699 121.599 108.546 113.624 110.787C122.703 106.47 132.632 104.239 142.685 104.255V104.278Z" fill="white"></path>
    <path d="M113.623 110.805C121.598 108.564 131.984 109.717 142.684 115.883C118.944 115.883 96.8286 128.019 84.6687 144.926C83.9391 143.224 83.4305 141.436 83.1553 139.605C90.0292 127.04 100.691 116.961 113.623 110.805Z" fill="white"></path>
    <path d="M103.001 226.842L102.93 226.936C94.3824 220.751 87.3974 212.655 82.5317 203.293C77.6659 193.931 75.0539 183.561 74.9038 173.011C74.8979 172.925 74.8979 172.838 74.9038 172.751C75.1876 182.411 81.6311 192.017 94.2344 199.448C94.0571 210.496 96.7469 220.209 103.001 226.842Z" fill="#E5EBFF"></path>
    <path d="M100.454 161.112C101.388 161.65 102.345 162.17 103.321 162.66C97.7049 175.075 94.4536 187.985 94.2408 199.448C81.6374 192.017 75.1939 182.411 74.9102 172.751C75.0343 162.897 78.6344 153.326 84.676 144.967C87.1706 150.867 92.4318 156.489 100.454 161.112Z" fill="white"></path>
    <path d="M74.8917 172.066C74.8757 160.72 77.7222 149.553 83.1678 139.6C83.443 141.43 83.9516 143.218 84.6811 144.92C78.6395 153.302 75.0395 162.873 74.9153 172.704C74.9153 172.485 74.9153 172.255 74.9153 172.036L74.8917 172.066Z" fill="white"></path>
    <path d="M74.8921 172.084C74.8921 172.302 74.8921 172.533 74.8921 172.752C74.8862 172.838 74.8862 172.925 74.8921 173.012C74.8921 172.698 74.8921 172.391 74.8921 172.084Z" fill="white"></path>
    <path d="M103.001 226.842C96.7462 220.209 94.0564 210.496 94.2338 199.448C94.417 187.985 97.6979 175.075 103.314 162.66C111.891 143.708 125.919 125.903 142.684 116.214H142.72L142.968 116.078C143.051 116.019 143.146 115.977 143.222 115.93C155.264 109.516 165.538 108.186 173.773 111.827C174.49 112.147 175.188 112.495 175.866 112.874" stroke="#1C1C1C" stroke-width="1.77345" stroke-linecap="round" stroke-linejoin="round"></path>
    <path d="M113.593 110.817C121.567 108.576 131.954 109.729 142.654 115.895H142.689C142.775 115.942 142.857 115.993 142.937 116.048C159.111 125.477 173.204 143.371 181.676 162.832C186.996 175.087 190.123 187.956 190.123 199.738C190.123 199.826 190.123 199.921 190.123 200.01C190.076 213.062 186.086 223.206 179.482 228.976C177.928 230.35 176.184 231.492 174.304 232.369" stroke="#1C1C1C" stroke-width="1.77345" stroke-linecap="round" stroke-linejoin="round"></path>
    <path d="M83.1553 139.588C83.4333 141.418 83.9418 143.206 84.6687 144.908C87.1751 150.82 92.4304 156.453 100.446 161.076C101.38 161.614 102.338 162.134 103.313 162.625C114.545 168.312 128.627 171.179 142.684 171.179C156.6 171.179 170.515 168.377 181.7 162.802C182.8 162.254 183.87 161.679 184.91 161.076C192.991 156.418 198.276 150.743 200.753 144.772C201.451 143.099 201.937 141.346 202.201 139.552" stroke="#1C1C1C" stroke-width="1.77345" stroke-linecap="round" stroke-linejoin="round"></path>
    <path d="M74.8916 172.066C74.8916 171.735 74.8916 171.403 74.8916 171.067" stroke="#1C1C1C" stroke-width="1.77345" stroke-linecap="round" stroke-linejoin="round"></path>
    <path d="M210.478 172.066C210.478 172.551 210.478 173.029 210.431 173.514C209.786 183.044 203.26 192.526 190.627 199.743L190.148 200.016C176.971 207.47 159.828 211.206 142.685 211.206C125.334 211.206 108.031 207.298 94.7423 199.743L94.2339 199.448C81.5537 192.159 75.1989 182.411 74.9033 172.752C74.9033 172.533 74.9033 172.302 74.9033 172.084" stroke="#1C1C1C" stroke-width="1.77345" stroke-linecap="round" stroke-linejoin="round"></path>
    <path d="M210.478 172.066C210.478 154.086 203.335 136.842 190.622 124.129C177.908 111.415 160.665 104.272 142.685 104.272C124.705 104.272 107.461 111.415 94.7478 124.129C82.0341 136.842 74.8916 154.086 74.8916 172.066C74.8916 172.373 74.8916 172.657 74.8916 172.994C75.53 195.103 86.1708 214.747 102.918 226.918C112.879 234.146 124.62 238.524 136.881 239.582C149.142 240.641 161.459 238.34 172.511 232.926C183.563 227.513 192.932 219.191 199.611 208.855C206.291 198.519 210.029 186.559 210.425 174.259C210.466 173.543 210.478 172.81 210.478 172.066Z" stroke="#1C1C1C" stroke-width="1.77345" stroke-linecap="round" stroke-linejoin="round"></path>
    <path d="M210.454 175.11C210.454 174.832 210.454 174.555 210.454 174.277C210.454 173.999 210.454 173.774 210.454 173.514C210.094 163.208 206.732 153.231 200.782 144.808C188.841 127.57 167.175 116.48 143.246 115.906H142.708C118.967 115.906 96.8639 128.049 84.6921 144.95C78.6506 153.338 75.0505 162.903 74.9263 172.734C74.9204 172.82 74.9204 172.907 74.9263 172.994C74.9263 173.088 74.9263 173.183 74.9263 173.283" stroke="#1C1C1C" stroke-width="1.77345" stroke-linecap="round" stroke-linejoin="round"></path>
    <path d="M142.686 104.278V239.853" stroke="#1C1C1C" stroke-width="1.77345" stroke-linecap="round" stroke-linejoin="round"></path>
    <path d="M155.111 296.414V309.727C155.111 315.479 151.564 321.225 144.376 325.611C130.064 334.39 106.856 334.39 92.538 325.611C85.3851 321.225 81.8027 315.473 81.8086 309.727V296.414C81.8086 302.16 85.3555 307.912 92.538 312.299C106.856 321.071 130.064 321.071 144.376 312.299C151.535 307.912 155.111 302.16 155.111 296.414Z" fill="#E5EBFF"></path>
    <path d="M144.376 280.524C151.535 284.91 155.111 290.662 155.111 296.414C155.111 302.166 151.564 307.912 144.376 312.299C130.064 321.071 106.856 321.071 92.538 312.299C85.3851 307.912 81.8086 302.16 81.8086 296.414C81.8086 291.969 83.9427 287.547 88.2226 283.71L101.772 289.403C97.1844 293.494 97.0425 298.903 101.393 303.071C102.236 303.87 103.162 304.578 104.154 305.181C112.058 310.023 124.844 310.023 132.76 305.181C133.754 304.578 134.682 303.87 135.526 303.071C140.516 298.27 139.594 291.839 132.76 287.648C131.006 286.591 129.119 285.772 127.15 285.212L134.208 276.12C137.778 277.13 141.197 278.611 144.376 280.524Z" fill="white"></path>
    <path d="M132.759 287.647C139.592 291.833 140.514 298.288 135.525 303.071C134.681 302.271 133.753 301.563 132.759 300.96C124.861 296.119 112.068 296.119 104.153 300.96C103.159 301.562 102.233 302.269 101.392 303.071C97.0589 298.932 97.1831 293.494 101.77 289.403C102.504 288.743 103.295 288.149 104.135 287.63C110.354 283.811 119.623 283.001 127.131 285.194C129.107 285.759 131 286.584 132.759 287.647Z" fill="#1C1C1C"></path>
    <path d="M134.208 276.12L127.15 285.212C119.642 283.019 110.373 283.829 104.154 287.647C103.315 288.167 102.523 288.76 101.789 289.421L88.2402 283.728C89.5814 282.54 91.0256 281.474 92.5557 280.542C103.811 273.619 120.594 272.147 134.208 276.12Z" fill="#9CA5C8"></path>
    <path d="M101.392 303.071C102.233 302.269 103.158 301.562 104.152 300.96C112.056 296.119 124.843 296.119 132.758 300.96C133.753 301.563 134.68 302.271 135.525 303.071" stroke="#1C1C1C" stroke-width="1.77345" stroke-linecap="round" stroke-linejoin="round"></path>
    <path d="M134.208 276.12C137.778 277.13 141.197 278.611 144.376 280.524C151.535 284.91 155.111 290.662 155.111 296.414C155.111 302.166 151.564 307.912 144.376 312.298C130.064 321.071 106.856 321.071 92.538 312.298C85.3851 307.912 81.8086 302.16 81.8086 296.414C81.8086 291.969 83.9427 287.547 88.2226 283.71C89.5638 282.523 91.008 281.456 92.538 280.524C103.811 273.62 120.588 272.153 134.208 276.12Z" stroke="#1C1C1C" stroke-width="1.77345" stroke-linecap="round" stroke-linejoin="round"></path>
    <path d="M127.149 285.212C129.118 285.772 131.004 286.591 132.759 287.648C139.592 291.833 140.514 298.288 135.525 303.071C134.68 303.87 133.753 304.578 132.759 305.181C124.861 310.023 112.068 310.023 104.153 305.181C103.16 304.578 102.235 303.87 101.392 303.071C97.0589 298.933 97.1831 293.5 101.77 289.403C102.505 288.744 103.297 288.151 104.135 287.63C110.372 283.829 119.635 283.025 127.149 285.212Z" stroke="#1C1C1C" stroke-width="1.77345" stroke-linecap="round" stroke-linejoin="round"></path>
    <path d="M101.771 289.403L88.2158 283.71" stroke="#1C1C1C" stroke-width="1.77345" stroke-linecap="round" stroke-linejoin="round"></path>
    <path d="M127.149 285.218L134.208 276.126" stroke="#1C1C1C" stroke-width="1.77345" stroke-linecap="round" stroke-linejoin="round"></path>
    <path d="M155.111 296.414V309.727C155.111 315.479 151.564 321.225 144.376 325.611C130.064 334.39 106.856 334.39 92.538 325.611C85.3851 321.225 81.8027 315.473 81.8086 309.727" stroke="#1C1C1C" stroke-width="1.77345" stroke-linecap="round" stroke-linejoin="round"></path>
    <path d="M81.8027 296.414V309.727" stroke="#1C1C1C" stroke-width="1.77345" stroke-linecap="round" stroke-linejoin="round"></path>
    <path d="M344.851 302.042V314.054L325.479 325.233V313.227L344.851 302.042Z" fill="#E5EBFF"></path>
    <path d="M344.852 302.042L325.48 313.227C312.209 306.198 291.719 306.263 278.578 313.422L259.206 302.237C283.053 288.912 320.875 288.847 344.852 302.042Z" fill="white"></path>
    <path d="M325.479 313.227V325.233C312.208 318.21 291.718 318.275 278.577 325.428V313.422C291.718 306.263 312.208 306.216 325.479 313.227Z" fill="#1C1C1C"></path>
    <path d="M278.578 313.422V325.428L259.206 314.243V302.237L278.578 313.422Z" fill="#E5EBFF"></path>
    <path d="M325.48 313.227L344.852 302.042C320.875 288.847 283.053 288.912 259.206 302.237L278.578 313.422C291.719 306.263 312.209 306.216 325.48 313.227Z" stroke="#1C1C1C" stroke-width="1.77345" stroke-linecap="round" stroke-linejoin="round"></path>
    <path d="M325.479 313.227V325.239" stroke="#1C1C1C" stroke-width="1.77345" stroke-linecap="round" stroke-linejoin="round"></path>
    <path d="M344.852 302.042V314.048L325.48 325.233C312.209 318.21 291.719 318.275 278.578 325.428L259.206 314.243V302.237" stroke="#1C1C1C" stroke-width="1.77345" stroke-linecap="round" stroke-linejoin="round"></path>
    <path d="M278.577 313.422V325.428" stroke="#1C1C1C" stroke-width="1.77345" stroke-linecap="round" stroke-linejoin="round"></path>
    <path d="M1.73047 103.132C3.03221 104.528 4.53442 105.724 6.18777 106.679L21.2975 115.227C19.7557 114.306 18.3508 113.174 17.1241 111.863C17.6443 110.681 18.2236 109.498 18.8088 108.316C27.3096 91.3856 41.6567 75.2118 57.9311 65.8184C65.823 61.2665 73.2538 58.8191 79.8037 58.3225C85.2541 57.9205 90.1075 58.8664 94.0387 61.0714L78.8934 52.482C70.2212 47.4809 57.1627 48.6632 42.5435 57.093C25.1401 67.1248 9.92382 84.942 1.73047 103.132Z" fill="white"></path>
    <path d="M18.8156 108.298C18.2245 109.48 17.6333 110.663 17.1309 111.845C18.3576 113.156 19.7625 114.289 21.3043 115.209L21.5881 115.374C30.2484 120.381 43.3306 119.211 57.9379 110.763C75.3414 100.714 90.5517 82.9024 98.7273 64.7245C97.4226 63.3286 95.9186 62.1334 94.2642 61.1776L94.0159 61.0416C90.0847 58.8367 85.2314 57.8909 79.781 58.2929C73.237 58.7894 65.8062 61.2486 57.9084 65.7886C41.6636 75.1938 27.3164 91.3676 18.8156 108.298ZM45.7721 95.2929C45.7721 87.5311 51.2225 78.1023 57.9379 74.2243C64.6534 70.3464 70.0979 73.4912 70.0979 81.2471C70.0979 89.003 64.6593 98.432 57.9379 102.31C51.2166 106.188 45.7721 103.067 45.7721 95.3106V95.2929Z" fill="#E5EBFF"></path>
    <path d="M57.9373 74.2422C51.2219 78.1201 45.7715 87.5489 45.7715 95.3107C45.7715 103.073 51.2219 106.206 57.9373 102.328C64.6528 98.4498 70.0973 89.0209 70.0973 81.265C70.0973 73.5091 64.6587 70.3465 57.9373 74.2422ZM54.6683 90.1677C54.7313 89.0344 55.06 87.9318 55.6279 86.949C56.1958 85.9663 56.9869 85.1309 57.9373 84.5104C59.7463 83.4641 61.2123 84.3153 61.2123 86.3961C61.1505 87.532 60.8217 88.6373 60.2527 89.6223C59.6837 90.6073 58.8904 91.4443 57.9373 92.0653C56.1166 93.0998 54.6683 92.2545 54.6683 90.1677Z" fill="white"></path>
    <path d="M57.938 84.534C56.9875 85.1545 56.1964 85.9899 55.6285 86.9727C55.0606 87.9555 54.7319 89.0581 54.6689 90.1914C54.6689 92.2782 56.1349 93.1471 57.938 92.089C58.891 91.468 59.6843 90.631 60.2533 89.646C60.8224 88.661 61.1511 87.5557 61.213 86.4198C61.213 84.3153 59.7469 83.4641 57.938 84.534Z" fill="#1C1C1C"></path>
    <path d="M21.3027 115.215L21.5865 115.38C30.2468 120.387 43.329 119.217 57.9363 110.769C75.3398 100.72 90.5501 82.9083 98.7257 64.7305C97.421 63.3346 95.917 62.1394 94.2626 61.1836L94.0143 61.0476" stroke="#1C1C1C" stroke-width="1.77345" stroke-linecap="round" stroke-linejoin="round"></path>
    <path d="M94.0394 61.0536L78.8941 52.4642C70.2219 47.463 57.1634 48.6454 42.5443 57.0752C25.1408 67.1247 9.92458 84.942 1.75488 103.132C3.05662 104.528 4.55876 105.724 6.21211 106.679L21.322 115.227C19.7801 114.306 18.3751 113.174 17.1484 111.863C17.6686 110.681 18.248 109.498 18.8332 108.316C27.334 91.3855 41.6812 75.2117 57.9555 65.8183C65.8474 61.2664 73.2782 58.819 79.8281 58.3224C85.2549 57.9323 90.1082 58.8486 94.0394 61.0536Z" stroke="#1C1C1C" stroke-width="1.77345" stroke-linecap="round" stroke-linejoin="round"></path>
    <path d="M45.7715 95.3106C45.7715 87.5488 51.2219 78.12 57.9373 74.2421C64.6528 70.3641 70.0973 73.509 70.0973 81.2649C70.0973 89.0208 64.6587 98.4497 57.9373 102.328C51.216 106.206 45.7715 103.067 45.7715 95.3106Z" stroke="#1C1C1C" stroke-width="1.77345" stroke-linecap="round" stroke-linejoin="round"></path>
    <path d="M54.6689 90.1677C54.7319 89.0344 55.0606 87.9318 55.6285 86.949C56.1964 85.9662 56.9875 85.1308 57.938 84.5104C59.7469 83.464 61.213 84.3152 61.213 86.3961C61.1511 87.532 60.8224 88.6373 60.2533 89.6223C59.6843 90.6073 58.891 91.4443 57.938 92.0653C56.1172 93.0998 54.6689 92.2545 54.6689 90.1677Z" stroke="#1C1C1C" stroke-width="1.77345" stroke-linecap="round" stroke-linejoin="round"></path>
    <path d="M246.68 143.229L223.873 182.73L214.433 177.28L236.885 137.572L246.68 143.229Z" fill="#E5EBFF"></path>
    <path d="M212.316 176.056L223.873 182.73L246.68 143.229L256.138 148.692L223.873 204.573L202.036 191.964L211.495 175.589L212.316 176.056Z" fill="white"></path>
    <path d="M202.047 170.105L192.592 186.483L202.037 191.936L211.493 175.559L202.047 170.105Z" fill="white"></path>
    <path d="M211.495 175.589L202.048 170.133L192.59 186.507L202.858 192.437" fill="#E5EBFF"></path>
    <path d="M211.495 175.589L202.048 170.133L192.59 186.507L202.858 192.437" stroke="#1C1C1C" stroke-width="1.77345" stroke-linecap="round" stroke-linejoin="round"></path>
    <path d="M246.681 143.229L236.886 137.572L214.079 177.073" stroke="#1C1C1C" stroke-width="1.77345" stroke-linecap="round" stroke-linejoin="round"></path>
    <path d="M246.68 143.229L223.873 182.73L211.495 175.589L202.036 191.964L223.873 204.573L256.138 148.692L246.68 143.229Z" stroke="#1C1C1C" stroke-width="1.77345" stroke-linecap="round" stroke-linejoin="round"></path>
    <path d="M243.902 245.327C243.902 247.224 244.564 248.561 245.676 249.181L248.815 250.99C247.733 250.399 247.041 249.039 247.041 247.142C247.11 245.107 247.691 243.122 248.732 241.372C249.737 239.521 251.203 237.961 252.988 236.844C254.632 235.898 256.116 235.803 257.191 236.43L254.052 234.615C252.977 233.994 251.493 234.083 249.849 235.029C248.119 236.158 246.678 237.678 245.645 239.467C244.612 241.256 244.015 243.264 243.902 245.327Z" fill="#1C1C1C"></path>
    <path d="M247.059 247.142C247.059 249.039 247.721 250.369 248.832 250.99C249.943 251.611 251.392 251.522 253.035 250.576C254.765 249.447 256.204 247.926 257.238 246.137C258.271 244.348 258.868 242.341 258.982 240.278C258.982 238.381 258.314 237.045 257.209 236.43C256.103 235.815 254.649 235.898 253.006 236.844C251.22 237.961 249.754 239.521 248.749 241.372C247.708 243.122 247.127 245.107 247.059 247.142Z" fill="#E5EBFF"></path>
    <path d="M257.19 236.46C256.114 235.869 254.63 235.928 252.987 236.874C251.202 237.991 249.736 239.551 248.731 241.402C247.69 243.152 247.108 245.137 247.04 247.172C247.04 249.069 247.702 250.399 248.813 251.02C249.925 251.641 251.373 251.552 253.017 250.606C254.746 249.477 256.186 247.956 257.219 246.167C258.252 244.378 258.85 242.371 258.964 240.308C258.934 238.381 258.29 237.051 257.19 236.46Z" stroke="#1C1C1C" stroke-width="1.77345" stroke-linecap="round" stroke-linejoin="round"></path>
    <path d="M257.191 236.46L254.052 234.645C252.977 234.024 251.493 234.113 249.849 235.059C248.119 236.187 246.678 237.708 245.645 239.497C244.612 241.286 244.015 243.293 243.902 245.356C243.902 247.254 244.564 248.59 245.676 249.211L248.815 251.02" stroke="#1C1C1C" stroke-width="1.77345" stroke-linecap="round" stroke-linejoin="round"></path>
    <path d="M224.364 256.606C224.364 258.504 225.032 259.84 226.108 260.461L229.247 262.269C228.171 261.678 227.503 260.319 227.503 258.421C227.571 256.386 228.153 254.401 229.194 252.651C230.199 250.8 231.665 249.241 233.45 248.123C235.094 247.177 236.577 247.083 237.653 247.709L234.514 245.895C233.438 245.274 231.955 245.362 230.311 246.308C228.527 247.427 227.061 248.987 226.055 250.837C225.015 252.587 224.433 254.571 224.364 256.606Z" fill="#1C1C1C"></path>
    <path d="M227.502 258.421C227.502 260.319 228.17 261.649 229.246 262.269C230.322 262.89 231.806 262.801 233.449 261.856C235.179 260.726 236.618 259.205 237.651 257.416C238.685 255.628 239.282 253.621 239.396 251.558C239.396 249.66 238.728 248.324 237.652 247.709C236.576 247.095 235.092 247.177 233.449 248.123C231.664 249.241 230.198 250.8 229.193 252.651C228.152 254.401 227.57 256.386 227.502 258.421Z" fill="#E5EBFF"></path>
    <path d="M237.652 247.692C236.576 247.071 235.092 247.16 233.449 248.105C231.664 249.223 230.198 250.783 229.193 252.634C228.152 254.384 227.57 256.368 227.502 258.403C227.502 260.301 228.17 261.631 229.246 262.252C230.322 262.872 231.806 262.784 233.449 261.838C235.179 260.708 236.618 259.188 237.651 257.399C238.685 255.61 239.282 253.603 239.396 251.54C239.372 249.66 238.728 248.33 237.652 247.692Z" stroke="#1C1C1C" stroke-width="1.77345" stroke-linecap="round" stroke-linejoin="round"></path>
    <path d="M237.653 247.692L234.514 245.877C233.438 245.256 231.955 245.345 230.311 246.29C228.527 247.409 227.061 248.969 226.055 250.819C225.015 252.569 224.433 254.554 224.364 256.588C224.364 258.486 225.032 259.822 226.108 260.443L229.247 262.252" stroke="#1C1C1C" stroke-width="1.77345" stroke-linecap="round" stroke-linejoin="round"></path>
    <path d="M204.826 267.885C204.826 269.783 205.494 271.119 206.6 271.74L209.739 273.549C208.663 272.958 207.965 271.598 207.965 269.7C208.033 267.665 208.615 265.681 209.656 263.931C210.661 262.08 212.127 260.52 213.912 259.402C215.555 258.457 217.039 258.362 218.115 258.989L214.976 257.174C213.906 256.553 212.417 256.642 210.773 257.588C208.989 258.706 207.523 260.266 206.517 262.116C205.477 263.866 204.895 265.851 204.826 267.885Z" fill="#1C1C1C"></path>
    <path d="M207.966 269.7C207.966 271.598 208.634 272.928 209.739 273.548C210.845 274.169 212.299 274.08 213.942 273.135C215.672 272.005 217.112 270.484 218.145 268.695C219.178 266.906 219.776 264.9 219.889 262.837C219.889 260.939 219.221 259.603 218.145 258.988C217.07 258.374 215.586 258.456 213.942 259.402C212.157 260.52 210.691 262.079 209.686 263.93C208.635 265.678 208.043 267.662 207.966 269.7Z" fill="#E5EBFF"></path>
    <path d="M218.091 258.989C217.016 258.368 215.532 258.456 213.888 259.402C212.103 260.52 210.637 262.079 209.632 263.93C208.591 265.68 208.01 267.665 207.941 269.7C207.941 271.598 208.609 272.928 209.715 273.548C210.82 274.169 212.274 274.081 213.918 273.135C215.648 272.005 217.087 270.484 218.12 268.695C219.154 266.906 219.751 264.9 219.865 262.837C219.865 260.939 219.191 259.609 218.091 258.989Z" stroke="#1C1C1C" stroke-width="1.77345" stroke-linecap="round" stroke-linejoin="round"></path>
    <path d="M218.093 258.989L214.954 257.174C213.884 256.553 212.394 256.642 210.751 257.588C208.967 258.706 207.501 260.266 206.494 262.116C205.454 263.866 204.873 265.851 204.804 267.885C204.804 269.783 205.472 271.119 206.577 271.74L209.716 273.549" stroke="#1C1C1C" stroke-width="1.77345" stroke-linecap="round" stroke-linejoin="round"></path>
    <path d="M251.977 34.694L212.606 97.8112L225.588 58.6356L213.653 65.5285L224.329 39.9789L213.647 46.1446L222.845 17.7753L240.266 8.56519L232.079 28.2505L242.129 22.4454L232.505 45.9436L251.977 34.694Z" fill="#9CA5C8"></path>
    <path d="M251.977 34.6939L232.505 45.9435L239.953 27.7538L251.977 34.6939Z" fill="white"></path>
    <path d="M242.129 22.4455L232.079 28.2506L235.975 18.8927L242.129 22.4455Z" fill="white"></path>
    <path d="M240.265 8.56518L222.844 17.7753L210.063 10.3977L227.491 1.18762L240.265 8.56518Z" fill="white"></path>
    <path d="M225.588 58.6357L212.607 97.8113L199.832 90.4337L208.977 62.8329L213.653 65.5286L225.588 58.6357Z" fill="white"></path>
    <path d="M224.329 39.9789L213.653 65.5284L200.878 58.1509L207.404 42.5386L213.647 46.1446L224.329 39.9789Z" fill="white"></path>
    <path d="M222.845 17.7754L213.647 46.1447L200.872 38.7731L210.064 10.3978L222.845 17.7754Z" fill="white"></path>
    <path d="M222.845 17.7753L213.647 46.1446L224.329 39.9789L213.653 65.5285L225.588 58.6356L212.606 97.8112L251.977 34.694L232.505 45.9436L242.129 22.4454L232.079 28.2505L240.266 8.56519L222.845 17.7753Z" stroke="#1C1C1C" stroke-width="1.77345" stroke-linecap="round" stroke-linejoin="round"></path>
    <path d="M222.844 17.7754L210.063 10.3978" stroke="#1C1C1C" stroke-width="1.77345" stroke-linecap="round" stroke-linejoin="round"></path>
    <path d="M213.647 46.1446L200.872 38.773L210.064 10.3977L227.492 1.18762L240.266 8.56518" stroke="#1C1C1C" stroke-width="1.77345" stroke-linecap="round" stroke-linejoin="round"></path>
    <path d="M213.653 65.5284L200.878 58.1509L207.404 42.5386" stroke="#1C1C1C" stroke-width="1.77345" stroke-linecap="round" stroke-linejoin="round"></path>
    <path d="M212.607 97.8113L199.832 90.4337L208.977 62.8329" stroke="#1C1C1C" stroke-width="1.77345" stroke-linecap="round" stroke-linejoin="round"></path>
    <path d="M251.976 34.6939L239.952 27.7538" stroke="#1C1C1C" stroke-width="1.77345" stroke-linecap="round" stroke-linejoin="round"></path>
    <path d="M242.128 22.4455L235.974 18.8927" stroke="#1C1C1C" stroke-width="1.77345" stroke-linecap="round" stroke-linejoin="round"></path>
    <path d="M79.0062 209.084C78.3938 204.918 76.2137 201.144 72.9115 198.532C72.5947 198.294 72.263 198.076 71.9183 197.881C67.9517 195.605 64.7536 197.444 64.7536 202.019C64.7536 206.595 67.9576 212.134 71.9183 214.434C75.879 216.733 79.0771 214.865 79.0771 210.295C79.0772 209.89 79.0535 209.486 79.0062 209.084ZM71.9124 183.221C82.8723 189.552 91.7633 204.952 91.7633 217.608C91.7633 228.887 76.015 238.635 72.5686 240.633L72.5035 240.675C72.1252 240.893 71.9124 241.006 71.9124 241.006C71.9124 241.006 52.0557 207.346 52.0557 194.683C52.0557 188.352 54.2784 183.901 57.8726 181.832C61.4668 179.763 66.4324 180.052 71.9183 183.221H71.9124Z" fill="#E5EBFF"></path>
    <path d="M72.5749 240.633C76.0213 238.635 91.7696 228.887 91.7696 217.608C91.7696 204.951 82.9023 189.552 71.9187 183.221C66.4329 180.052 61.4731 179.751 57.8789 181.832L65.9659 177.161C69.5601 175.086 74.5257 175.388 80.0057 178.551C90.9656 184.882 99.8624 200.281 99.8624 212.938C99.8624 224.294 83.9014 234.095 80.5969 235.993L72.5749 240.633Z" fill="#717998"></path>
    <path d="M79.0065 209.084C79.0527 209.476 79.0764 209.871 79.0775 210.266C79.0775 214.83 75.8734 216.686 71.9186 214.404C67.9639 212.122 64.7539 206.565 64.7539 201.99C64.7539 197.414 67.952 195.582 71.9186 197.852C72.2633 198.047 72.5951 198.264 72.9118 198.502C73.4977 202.685 75.6823 206.478 79.0065 209.084Z" fill="#1C1C1C"></path>
    <path d="M72.9111 198.532C73.5043 202.704 75.6882 206.485 79.0059 209.084" stroke="#1C1C1C" stroke-width="1.77345" stroke-linecap="round" stroke-linejoin="round"></path>
    <path d="M72.5744 240.633C76.0208 238.635 91.7691 228.887 91.7691 217.608C91.7691 204.951 82.9018 189.552 71.9183 183.221C66.4324 180.052 61.4726 179.757 57.8784 181.832C54.2842 183.906 52.0615 188.334 52.0615 194.683C52.0615 207.346 71.9183 241.006 71.9183 241.006C71.9183 241.006 72.1311 240.893 72.5094 240.675" stroke="#1C1C1C" stroke-width="1.77345" stroke-linecap="round" stroke-linejoin="round"></path>
    <path d="M72.9118 198.532C72.5951 198.294 72.2633 198.076 71.9186 197.881C67.952 195.605 64.7539 197.444 64.7539 202.019C64.7539 206.595 67.9579 212.134 71.9186 214.433C75.8794 216.733 79.0775 214.865 79.0775 210.295C79.0764 209.9 79.0527 209.506 79.0065 209.113C78.4013 204.937 76.2206 201.151 72.9118 198.532Z" stroke="#1C1C1C" stroke-width="1.77345" stroke-linecap="round" stroke-linejoin="round"></path>
    <path d="M57.8887 181.826L65.9815 177.161C69.5757 175.086 74.5413 175.388 80.0213 178.551C90.9812 184.882 99.8781 200.281 99.8781 212.938C99.8781 224.294 83.917 234.095 80.6125 235.993L72.5256 240.663" stroke="#1C1C1C" stroke-width="1.77345" stroke-linecap="round" stroke-linejoin="round"></path>
  </g>
  <defs>
    <clipPath id="clip0_2033_18705">
      <rect width="355.92" height="336.518" fill="white" transform="translate(0.0400391 0.300781)"></rect>
    </clipPath>
  </defs>
</svg>
