<svg xmlns="http://www.w3.org/2000/svg" width="219.38" height="55.675" viewBox="0 0 219.38 55.675"><defs><style>.a{fill:#f7eb00;}</style></defs><g transform="translate(54.998 -51)"><g transform="translate(0 77.383)"><path class="a" d="M5.252,1419c0,3.6,1.738,5.785,4.557,5.785s4.635-2.222,4.635-5.679-1.623-5.362-4.519-5.362c-2.935,0-4.673,1.941-4.673,5.256M0,1409.368H5.33v3.422a8.33,8.33,0,0,1,2.008-2.54,7.541,7.541,0,0,1,4.789-1.481c5.02,0,7.879,3.492,7.879,9.629,0,6.631-3.206,10.864-8.226,10.864a6.818,6.818,0,0,1-4.017-1.164,8.886,8.886,0,0,1-1.97-2.187v7.337H0Z" transform="translate(0 -1404.43)"/><path class="a" d="M396.2,1421.473c-2.472.635-3.4,1.376-3.4,2.716,0,1.3,1.12,2.222,2.7,2.222a4.289,4.289,0,0,0,4.055-2.574,9.921,9.921,0,0,0,.58-3.845c-.773.6-1.352.811-3.94,1.481m4.094,7.76v-2.857a6.974,6.974,0,0,1-6.411,3.457c-3.785,0-6.373-2.187-6.373-5.326a5.009,5.009,0,0,1,2.665-4.48c1.467-.776,2.7-1.128,6.72-1.94,2.2-.423,3.129-1.093,3.129-2.257,0-1.3-1.545-2.257-3.669-2.257a10.818,10.818,0,0,0-7.917,3.492v-4.691a13.242,13.242,0,0,1,8.767-3c2.858,0,5.252.847,6.566,2.328,1,1.129,1.352,2.47,1.352,5.256v12.275Z" transform="translate(-365.036 -1405)"/><path class="a" d="M729.076,1443.023H723.4l2.318-5.855-7.956-18.059h5.986l2.9,7.442a43.547,43.547,0,0,1,1.815,6.807,54.73,54.73,0,0,1,1.584-6.807l2.51-7.442h5.716Z" transform="translate(-676.123 -1414.17)"/><path class="a" d="M1112.087,1342.3v2.222h-7.956v13.686h-2.471v-13.686h-3.051V1342.3h3.051c.038-3.033.038-3.351.425-4.55.772-2.4,2.858-3.775,5.716-3.775a7.884,7.884,0,0,1,4.286,1.27v2.61a5.348,5.348,0,0,0-3.978-1.658c-1.7,0-3.012.635-3.514,1.728-.425.882-.464,1.164-.464,3.527v.847Z" transform="translate(-1034.879 -1333.976)"/><path class="a" d="M1400.309,1455.584h-2.356l.154-2.222.039-.635.078-.67a3.436,3.436,0,0,1,.038-.529,5.947,5.947,0,0,1-2.085,2.892,7.636,7.636,0,0,1-4.635,1.481,6.835,6.835,0,0,1-5.137-2.046c-1.236-1.446-1.506-2.645-1.506-6.842v-9.665h2.472v9.665c0,3.421.193,4.656.888,5.5a4.584,4.584,0,0,0,3.63,1.376,5.217,5.217,0,0,0,4.943-2.61c.888-1.587,1-2.4,1-6.7v-7.231h2.472Z" transform="translate(-1304.562 -1431.352)"/><path class="a" d="M1718.147,1355.079v2.222h-7.415c0,3.6,0,5.256-.077,7.971-.039.776-.039,1.552-.039,1.764,0,3.1.888,4.374,2.974,4.374,1.545,0,2.7-.6,4.132-2.187v2.363a5.532,5.532,0,0,1-4.287,1.834,5.166,5.166,0,0,1-4.4-2.116c-.656-1.094-.811-2.117-.811-4.974,0-.388,0-1.693.038-2.822.038-1.834.038-2.822.038-3.88,0-.352,0-1.34-.038-2.328h-3.09v-1.517c2.819-.317,3.939-1.693,4.9-6h1.352l-.386,5.291Z" transform="translate(-1606.254 -1348.871)"/><path class="a" d="M2001.562,1455.584h-2.356l.154-2.222.039-.635.077-.67a3.436,3.436,0,0,1,.038-.529,5.946,5.946,0,0,1-2.085,2.892,7.636,7.636,0,0,1-4.634,1.481,6.835,6.835,0,0,1-5.137-2.046c-1.236-1.446-1.506-2.645-1.506-6.842v-9.665h2.472v9.665c0,3.421.193,4.656.888,5.5a4.583,4.583,0,0,0,3.63,1.376,5.216,5.216,0,0,0,4.943-2.61c.889-1.587,1-2.4,1-6.7v-7.231h2.472Z" transform="translate(-1870.938 -1431.352)"/><path class="a" d="M2331.716,1432.194h2.626l-.309,4.409a6.643,6.643,0,0,1,1.777-3.386,4.946,4.946,0,0,1,3.591-1.34,4.209,4.209,0,0,1,3.476,1.446v2.222a4.727,4.727,0,0,0-3.592-1.552,4.6,4.6,0,0,0-4.6,3.527c-.464,1.376-.464,1.411-.464,10.3l-.039,2.61h-2.472Z" transform="translate(-2196.455 -1426.198)"/><path class="a" d="M2571.405,1440.593a8.552,8.552,0,0,0-.58-2.786,5.481,5.481,0,0,0-5.291-3.1c-3.476,0-5.523,2.081-5.754,5.89Zm-11.625,1.869c.115,4.8,2.047,6.843,6.411,6.843,2.781,0,4.4-.882,6.411-3.492v2.822a8.229,8.229,0,0,1-6.72,2.68c-5.484,0-8.458-3.245-8.458-9.276s3.012-9.559,8.265-9.559c4.866,0,7.762,3.21,7.762,8.642,0,.494,0,.705-.039,1.341Z" transform="translate(-2409.07 -1426.766)"/></g><path class="a" d="M1109.213,11.779l-24.958,15.243V55.675H1078.2V23.631L1098.221,11.4l-5.917-4.2-23.468,13.626v-7L1092.637,0Z" transform="translate(-1123.833 51)"/><path class="a" d="M1450.372,322.282v6.995L1431,340.439v-6.995Z" transform="translate(-1464.993 -252.587)"/><path class="a" d="M1444.99,623.7V630.7l-13.985,8.09v-6.995Z" transform="translate(-1464.994 -536.521)"/></g></svg>