<svg xmlns="http://www.w3.org/2000/svg" id="Layer_1" data-name="Layer 1" viewBox="0 0 119.29 112.76"><defs><style>.cls-1{fill:none;stroke:#000;stroke-miterlimit:10;stroke-width:0.56px;}.cls-2{fill:#00bf6f;}.cls-3{font-size:33.41px;fill:#fff;font-family:OpenSans-Bold, Open Sans;font-weight:700;}</style></defs><title>logo</title><path class="cls-1" d="M101.91,109.71h-2A5,5,0,0,1,98.57,108" transform="translate(-4.15 -7.81)"/><rect class="cls-2" x="5.3" y="8.96" width="99.1" height="99.1" transform="translate(-2.76 -9.08) rotate(1.34)"/><text class="cls-3" transform="translate(8.33 52.8) rotate(1.34)">Tiny<tspan x="0" y="31.74">Pesa</tspan></text><path d="M120.28,114.73c-1.11,0-3.34.55-4.45,0s-2.23-1.12-1.67-2.79,4.45-1.11,5-.56S120.28,114.73,120.28,114.73Z" transform="translate(-4.15 -7.81)"/><ellipse cx="109.43" cy="112.22" rx="1.39" ry="3.62" transform="translate(-25.6 190.66) rotate(-79.11)"/><ellipse cx="103.3" cy="110.27" rx="1.67" ry="2.51" transform="translate(-35.06 171.88) rotate(-74.22)"/><path class="cls-1" d="M106.92,112.5c1.11.56,1.11,1.67,0,1.67s-2.23-1.11-3.34.56-.56,3.89-1.11,4.45-1.12,1.11-1.67,1.11" transform="translate(-4.15 -7.81)"/><path class="cls-1" d="M114.71,120.29a7.88,7.88,0,0,1-1.67-1.11c-.55-.56,0-3.9-1.11-5" transform="translate(-4.15 -7.81)"/><path class="cls-1" d="M114.71,113.06a1.74,1.74,0,0,1-.55,1.11c-.56.56-2.23,0-3.34,0a3,3,0,0,1-2-1.21" transform="translate(-4.15 -7.81)"/><path class="cls-1" d="M123.07,120.29H122c-1.67,0-3.34-3.89-4.36-5.87" transform="translate(-4.15 -7.81)"/><path class="cls-1" d="M101.35,106.93c0-1.11,1.12-.56,2.79,0s1.11,2.23.55,2.23h-2.22" transform="translate(-4.15 -7.81)"/></svg>