<svg xmlns="http://www.w3.org/2000/svg" width="120" height="121" viewBox="0 0 120 121" fill="none">
  <g clip-path="url(#clip0_3979_2497)">
    <path d="M109.264 64.769V68.4247L98.444 74.6698L97.8789 73.6969L96.4736 72.2081L109.264 64.769Z" fill="#E5EBFF"/>
    <path d="M109.264 55.1779L64.8014 80.8461L15.7055 52.5049C14.5164 51.817 13.4207 51.7433 12.5657 52.1806L56.9152 26.5714C57.7898 26.0702 58.9248 26.1193 60.1679 26.8318L109.264 55.1779Z" fill="#0C268F"/>
    <path d="M109.264 64.7691L96.4745 72.2082L92.7845 68.2872L104.002 61.8652L109.264 64.7691Z" fill="#1C1C1C"/>
    <path d="M97.8795 73.697L98.4446 74.6699L64.8017 94.0931L52.6751 87.0962L56.6354 85.9219L64.8017 90.6389L89.8115 76.0899L97.8795 73.697Z" fill="#E5EBFF"/>
    <path d="M96.4746 72.2081L97.8798 73.6969L67.7206 82.6346L92.7845 68.2871L96.4746 72.2081Z" fill="white"/>
    <path d="M104.002 61.8651L64.8017 84.3052L14.2071 55.0943C14.0941 55.0304 14.0057 54.9862 13.932 54.9567C13.8386 55.1778 13.7305 55.6004 13.7305 56.2588C13.7305 59.0595 15.5633 62.2091 17.1995 63.1574L32.0973 71.756L39.2612 79.3474L15.7058 65.7517C12.964 64.1647 10.7382 59.9145 10.7382 56.2588C10.7382 54.259 11.4015 52.8439 12.453 52.2395L12.566 52.1757C13.421 51.7384 14.5167 51.8121 15.7058 52.5L64.8017 80.8411L109.264 55.1729V58.8482L104.002 61.8602V61.8651Z" fill="#E5EBFF"/>
    <path d="M89.8112 76.0898L64.8013 90.6388L56.6351 85.9218L63.8776 83.7697L64.8013 84.3053L67.72 82.6347L89.8112 76.0898Z" fill="#1C1C1C"/>
    <path d="M61.0095 82.1138L57.4815 83.9662L21.4065 59.2512L61.0095 82.1138Z" fill="white"/>
    <path d="M56.6343 85.9218L47.903 88.5063L18.9771 57.8508L57.4795 83.9662L61.0074 82.1138L63.8769 83.7697L56.6343 85.9218Z" fill="white"/>
    <path d="M32.102 71.761L17.2042 63.1623C15.568 62.214 13.7353 59.0645 13.7353 56.2638C13.7353 55.6103 13.8434 55.1877 13.9367 54.9617C14.0104 54.9912 14.0989 55.0354 14.2119 55.0992L18.9829 57.8557L32.1069 71.7659L32.102 71.761Z" fill="#1C1C1C"/>
    <path d="M21.3767 59.2313L14.2079 55.0941C14.0948 55.0302 14.0064 54.986 13.9327 54.9565C13.8393 55.1777 13.7312 55.6002 13.7312 56.2586C13.7312 59.0593 15.564 62.2089 17.2002 63.1572L32.098 71.7559" stroke="#1C1C1C" stroke-width="1.47406" stroke-linecap="round" stroke-linejoin="round"/>
    <path d="M109.265 55.1777V58.853L64.8027 84.3051L21.4065 59.251" stroke="#1C1C1C" stroke-width="1.47406" stroke-linecap="round" stroke-linejoin="round"/>
    <path d="M56.6351 85.9218L64.8013 90.6388L89.8112 76.0898" stroke="#1C1C1C" stroke-width="1.47406" stroke-linecap="round" stroke-linejoin="round"/>
    <path d="M96.4742 72.2081L109.264 64.769V68.4247L64.8017 94.0929L52.6751 87.0961" stroke="#1C1C1C" stroke-width="1.47406" stroke-linecap="round" stroke-linejoin="round"/>
    <path d="M12.5657 52.1806C13.4207 51.7433 14.5164 51.817 15.7055 52.5049L64.8014 80.8461L109.264 55.1779L60.1679 26.8318C58.9297 26.1193 57.7898 26.0702 56.9152 26.5714L12.5657 52.1806Z" stroke="#1C1C1C" stroke-width="1.47406" stroke-linecap="round" stroke-linejoin="round"/>
    <path d="M12.5664 52.1804L12.4534 52.2443" stroke="#1C1C1C" stroke-width="1.47406" stroke-linecap="round" stroke-linejoin="round"/>
    <path d="M39.2661 79.3523L15.7058 65.7517C12.964 64.1646 10.7382 59.9144 10.7382 56.2588C10.7382 54.259 11.4015 52.8439 12.453 52.2395" stroke="#1C1C1C" stroke-width="1.47406" stroke-linecap="round" stroke-linejoin="round"/>
    <path d="M109.265 64.7689L104.002 61.865" stroke="#1C1C1C" stroke-width="1.47406" stroke-linecap="round" stroke-linejoin="round"/>
    <path d="M92.7845 68.2871L97.8798 73.6969L67.7206 82.6346" stroke="#1C1C1C" stroke-width="1.47406" stroke-linecap="round" stroke-linejoin="round"/>
    <path d="M63.8769 83.7697L47.903 88.5063L18.9771 57.8508" stroke="#1C1C1C" stroke-width="1.47406" stroke-linecap="round" stroke-linejoin="round"/>
    <path d="M21.3764 59.2317L57.4809 83.9664L61.0088 82.114" stroke="#1C1C1C" stroke-width="1.47406" stroke-linecap="round" stroke-linejoin="round"/>
    <path d="M103.188 70.9256C103.881 74.0801 103.163 76.2715 101.67 77.1363L86.477 85.9069V85.8971C87.5776 85.2583 88.2606 83.8973 88.2606 81.9614C88.2606 81.6567 88.2409 81.3472 88.2115 81.0278C87.8184 77.3623 85.2584 73.1907 82.1727 71.412L70.7783 64.8328C68.9357 63.7666 68.9357 61.1084 70.7783 60.0471L77.2101 56.3324C80.0648 54.6815 83.578 54.6815 86.4377 56.3324L96.7659 62.2975C100.004 64.1646 102.382 67.2749 103.193 70.9256H103.188Z" fill="#E5EBFF"/>
    <path d="M88.2109 81.0278C88.2453 81.3423 88.2601 81.6568 88.2601 81.9614C88.2601 83.8973 87.5771 85.2584 86.4715 85.8971C85.366 86.5359 83.8428 86.4425 82.1673 85.4795L81.3566 85.0127L88.2109 81.0278Z" fill="white"/>
    <path d="M86.4826 85.9069L101.675 77.1363C103.169 76.2715 103.886 74.0752 103.193 70.9256C102.383 67.2749 100.005 64.1646 96.7666 62.2975L86.4384 56.3324C83.5787 54.6815 80.0655 54.6815 77.2108 56.3324L70.779 60.0471C68.9364 61.1084 68.9364 63.7666 70.779 64.8328L82.1735 71.412C85.2641 73.1907 87.824 77.3623 88.2122 81.0278M88.2122 81.0278C88.2466 81.3423 88.2613 81.6567 88.2613 81.9614C88.2613 83.8973 87.5783 85.2583 86.4728 85.8971C85.3672 86.5359 83.8441 86.4425 82.1685 85.4795L81.3578 85.0127L88.2122 81.0278Z" stroke="#1C1C1C" stroke-width="1.47406" stroke-linecap="round" stroke-linejoin="round"/>
    <path d="M85.027 59.6147C86.8155 60.6465 86.8155 62.3221 85.027 63.3539C83.2385 64.3857 80.3346 64.3857 78.5461 63.3539C76.7576 62.3221 76.7576 60.6465 78.5461 59.6147C80.3346 58.5829 83.2385 58.5829 85.027 59.6147Z" fill="white"/>
    <path d="M85.027 59.6147C86.8155 60.6465 86.8155 62.3221 85.027 63.3539C83.2385 64.3857 80.3346 64.3857 78.5461 63.3539C76.7576 62.3221 76.7576 60.6465 78.5461 59.6147C80.3346 58.5829 83.2385 58.5829 85.027 59.6147Z" stroke="#1C1C1C" stroke-width="1.47406" stroke-linecap="round" stroke-linejoin="round"/>
  </g>
  <defs>
    <clipPath id="clip0_3979_2497">
      <rect width="100" height="69.3298" fill="white" transform="translate(10 25.5)"/>
    </clipPath>
  </defs>
</svg>